<?xml version="1.0" encoding="UTF-8" standalone="no"?>
<svg width="54px" height="52px" viewBox="0 0 54 52" version="1.1" xmlns="http://www.w3.org/2000/svg" xmlns:xlink="http://www.w3.org/1999/xlink">
    <!-- Generator: Sketch 3.7.2 (28276) - http://www.bohemiancoding.com/sketch -->
    <title>logo copy</title>
    <desc>Created with Sketch.</desc>
    <defs></defs>
    <g id="Welcome" stroke="none" stroke-width="1" fill="none" fill-rule="evenodd">
        <g id="Home" transform="translate(-1116.000000, -930.000000)">
            <g id="thirds-strip" transform="translate(0.000000, 915.000000)">
                <g id="get-involved" transform="translate(960.000000, 0.000000)">
                    <g id="Group-2" transform="translate(156.000000, 15.000000)">
                        <g id="logo-copy">
                            <path d="M27.0391913,51.4918668 C37.1376229,51.4918668 53.7192601,46.0848686 53.7192601,31.4654844 C53.7192601,16.8461001 36.4773466,0.36521875 21.4853658,0.36521875 C11.9802764,0.36521875 8.665659,1.97924048 3.81654117,9.19211184 C1.01734789,13.3558014 0.211848575,19.7646014 0.359122621,25.1132632 C0.79262539,40.8571077 16.9407598,51.4918668 27.0391913,51.4918668 Z" id="Oval-1" fill="#B3AA94"></path>
                            <path d="M24.3109307,44.1178947 C34.7171291,44.1178947 43.1916919,39.6350756 43.1916919,29.3265354 C43.1916919,19.0179952 28.1606849,6.75124424 19.3995626,6.75124424 C10.6384403,6.75124424 5.42767451,12.890473 5.42767451,23.1990132 C5.42767451,33.5075534 13.9047323,44.1178947 24.3109307,44.1178947 Z" id="Oval-2" fill="#981B1E"></path>
                            <path d="M24.4481546,41.0181752 C30.4449469,41.0181752 35.0390329,35.0842398 35.0390329,27.3996916 C35.0390329,19.7151435 27.8311435,12.9129021 21.8343512,12.9129021 C15.8375589,12.9129021 13.2151309,17.4903581 13.2151309,25.1749062 C13.2151309,32.8594544 18.4513623,41.0181752 24.4481546,41.0181752 Z" id="Oval-3" fill="#FCD2C1"></path>
                            <path d="M23.3528584,34.6155789 C27.9386407,34.6155789 31.6315139,29.6139815 31.6315139,25.6779934 C31.6315139,21.7420053 28.9210391,19.8308479 24.3352568,19.8308479 C19.7494744,19.8308479 15.0183777,22.9072586 15.0183777,26.8432467 C15.0183777,30.7792348 18.767076,34.6155789 23.3528584,34.6155789 Z" id="Oval-4" fill="#D71921"></path>
                        </g>
                    </g>
                </g>
            </g>
        </g>
    </g>
</svg>