<?xml version="1.0" encoding="UTF-8" standalone="no"?>
<svg width="239px" height="122px" viewBox="0 0 239 122" version="1.1" xmlns="http://www.w3.org/2000/svg" xmlns:xlink="http://www.w3.org/1999/xlink">
    <!-- Generator: Sketch 3.7.2 (28276) - http://www.bohemiancoding.com/sketch -->
    <title>logo</title>
    <desc>Created with Sketch.</desc>
    <defs></defs>
    <g id="Welcome" stroke="none" stroke-width="1" fill="none" fill-rule="evenodd">
        <g id="Home" transform="translate(-40.000000, -34.000000)">
            <g id="top-left" transform="translate(-107.000000, -123.000000)">
                <g id="logo" transform="translate(146.487414, 157.000000)">
                    <text id="heart" font-family="OpenSans, Open Sans" font-size="57.272981" font-weight="normal" letter-spacing="-3.20000005" fill="#323844">
                        <tspan x="107.72991" y="89.52">he</tspan>
                        <tspan x="168.614477" y="89.52" letter-spacing="-5.6">a</tspan>
                        <tspan x="194.866979" y="89.52" letter-spacing="-0.6">r</tspan>
                        <tspan x="217.645989" y="89.52" letter-spacing="-1">t</tspan>
                    </text>
                    <text id="headingly-enterprise" font-family="OpenSans, Open Sans" font-size="16.0364347" font-weight="normal" letter-spacing="-0.896000028" fill="#323844">
                        <tspan x="0" y="117.44">headingly enterprise and arts centre</tspan>
                    </text>
                    <path d="M50.0844366,94.0716797 C68.5982279,94.0716797 98.9978959,84.19351 98.9978959,57.4850195 C98.9978959,30.776529 67.3877213,0.667226562 39.9024232,0.667226562 C22.4764259,0.667226562 16.3996273,3.61592011 7.50957795,16.7932812 C2.37772361,24.4000217 0.900974866,36.1084063 1.17097728,45.88 C1.96573236,74.642793 31.5706454,94.0716797 50.0844366,94.0716797 Z" id="Oval-1" fill="#B3AA94"></path>
                    <path d="M45.0826254,80.6 C64.1606559,80.6 79.6973543,72.4102342 79.6973543,53.5773242 C79.6973543,34.7444143 52.1405081,12.3340039 36.0784505,12.3340039 C20.016393,12.3340039 10.4633224,23.5499025 10.4633224,42.3828125 C10.4633224,61.2157225 26.004595,80.6 45.0826254,80.6 Z" id="Oval-2" fill="#981B1E"></path>
                    <path d="M45.3342026,74.9370508 C56.3283218,74.9370508 64.7508127,64.0962072 64.7508127,50.0571289 C64.7508127,36.0180506 51.5363489,23.5908789 40.5422296,23.5908789 C29.5481104,23.5908789 24.7403257,31.9535388 24.7403257,45.9926172 C24.7403257,60.0316955 34.3400834,74.9370508 45.3342026,74.9370508 Z" id="Oval-3" fill="#FCD2C1"></path>
                    <path d="M43.3261595,63.24 C51.7334272,63.24 58.5036947,54.1024662 58.5036947,46.9117187 C58.5036947,39.7209713 53.5344909,36.2294336 45.1272232,36.2294336 C36.7199556,36.2294336 28.0462782,41.8497994 28.0462782,49.0405469 C28.0462782,56.2312943 34.9188919,63.24 43.3261595,63.24 Z" id="Oval-4" fill="#D71921"></path>
                </g>
            </g>
        </g>
    </g>
</svg>